<?xml version="1.0" encoding="UTF-8"?>
<svg width="30px" height="30px" viewBox="0 0 30 30" version="1.1" xmlns="http://www.w3.org/2000/svg" xmlns:xlink="http://www.w3.org/1999/xlink">
    <!-- Generator: Sketch 42 (36781) - http://www.bohemiancoding.com/sketch -->
    <title>Icon: Capital Goods</title>
    <desc>Created with Sketch.</desc>
    <defs></defs>
    <g id="Page-1" stroke="none" stroke-width="1" fill="none" fill-rule="evenodd">
        <g id="Icon:-Capital-Goods" fill-rule="nonzero" fill="#000000">
            <g>
                <path d="M2.4739726,22.3972603 L4.93972603,22.3972603 L4.93972603,2.67123288 L2.4739726,2.67123288 L2.4739726,22.3972603 Z M1.24109589,0.205479452 L6.17260274,0.205479452 C6.85350175,0.205479452 7.40547945,0.757457158 7.40547945,1.43835616 L7.40547945,23.630137 C7.40547945,24.311036 6.85350175,24.8630137 6.17260274,24.8630137 L1.24109589,24.8630137 C0.560196884,24.8630137 0.00821917808,24.311036 0.00821917808,23.630137 L0.00821917808,1.43835616 C0.00821917808,0.757457158 0.560196884,0.205479452 1.24109589,0.205479452 Z" id="Stroke-1"></path>
                <path d="M7.40547945,2.67123288 L7.40547945,5.1369863 L27.1315068,5.1369863 L27.1315068,2.67123288 L7.40547945,2.67123288 Z M6.17260274,0.205479452 L28.3643836,0.205479452 C29.0452826,0.205479452 29.5972603,0.757457158 29.5972603,1.43835616 L29.5972603,6.36986301 C29.5972603,7.05076202 29.0452826,7.60273973 28.3643836,7.60273973 L6.17260274,7.60273973 C5.49170373,7.60273973 4.93972603,7.05076202 4.93972603,6.36986301 L4.93972603,1.43835616 C4.93972603,0.757457158 5.49170373,0.205479452 6.17260274,0.205479452 Z" id="Stroke-2"></path>
                <path d="M2.4739726,24.8630137 L2.4739726,27.3287671 L22.2,27.3287671 L22.2,24.8630137 L2.4739726,24.8630137 Z M1.24109589,22.3972603 L23.4328767,22.3972603 C24.1137757,22.3972603 24.6657534,22.949238 24.6657534,23.630137 L24.6657534,28.5616438 C24.6657534,29.2425428 24.1137757,29.7945205 23.4328767,29.7945205 L1.24109589,29.7945205 C0.560196884,29.7945205 0.00821917808,29.2425428 0.00821917808,28.5616438 L0.00821917808,23.630137 C0.00821917808,22.949238 0.560196884,22.3972603 1.24109589,22.3972603 Z" id="Stroke-3"></path>
                <path d="M24.6657534,7.60273973 L24.6657534,27.3287671 L27.1315068,27.3287671 L27.1315068,7.60273973 L24.6657534,7.60273973 Z M23.4328767,5.1369863 L28.3643836,5.1369863 C29.0452826,5.1369863 29.5972603,5.68896401 29.5972603,6.36986301 L29.5972603,28.5616438 C29.5972603,29.2425428 29.0452826,29.7945205 28.3643836,29.7945205 L23.4328767,29.7945205 C22.7519777,29.7945205 22.2,29.2425428 22.2,28.5616438 L22.2,6.36986301 C22.2,5.68896401 22.7519777,5.1369863 23.4328767,5.1369863 Z" id="Stroke-4"></path>
                <path d="M16.5115801,5.39668905 L5.41568965,14.026826 C4.87822051,14.4448576 4.78139722,15.2194439 5.19942877,15.7569131 C5.61746033,16.2943822 6.39204668,16.3912055 6.92951582,15.973174 L18.0254062,7.34303698 C18.5628754,6.92500543 18.6596987,6.15041907 18.2416671,5.61294993 C17.8236356,5.07548079 17.0490492,4.97865749 16.5115801,5.39668905 Z" id="Stroke-5"></path>
                <path d="M22.7162817,7.83238339 L5.45600771,20.1611505 C4.90193739,20.556915 4.77360518,21.3269083 5.16936969,21.8809786 C5.5651342,22.4350489 6.33512746,22.5633811 6.88919777,22.1676166 L24.1494717,9.83884949 C24.7035421,9.44308498 24.8318743,8.67309172 24.4361098,8.11902141 C24.0403453,7.56495109 23.270352,7.43661888 22.7162817,7.83238339 Z" id="Stroke-6"></path>
                <path d="M22.7489998,15.2070613 L11.6531093,22.6043216 C11.0865671,22.9820164 10.9334761,23.7474717 11.3111709,24.3140139 C11.6888657,24.8805562 12.454321,25.0336472 13.0208633,24.6559524 L24.1167537,17.2586921 C24.6832959,16.8809973 24.836387,16.115542 24.4586921,15.5489998 C24.0809973,14.9824575 23.315542,14.8293665 22.7489998,15.2070613 Z" id="Stroke-7"></path>
            </g>
        </g>
    </g>
</svg>